<?xml version="1.0" encoding="UTF-8" standalone="no"?>
<svg
   xmlns:dc="http://purl.org/dc/elements/1.1/"
   xmlns:cc="http://creativecommons.org/ns#"
   xmlns:rdf="http://www.w3.org/1999/02/22-rdf-syntax-ns#"
   xmlns:svg="http://www.w3.org/2000/svg"
   xmlns="http://www.w3.org/2000/svg"
   xmlns:xlink="http://www.w3.org/1999/xlink"
   xmlns:sodipodi="http://sodipodi.sourceforge.net/DTD/sodipodi-0.dtd"
   xmlns:inkscape="http://www.inkscape.org/namespaces/inkscape"
   width="599.95px"
   height="312.09px"
   version="1.1"
   id="svg5420"
   inkscape:version="0.91 r13725"
   sodipodi:docname="001_teardrop_001_sf2_ink.svg">
  <metadata
     id="metadata5635">
    <rdf:RDF>
      <cc:Work
         rdf:about="">
        <dc:format>image/svg+xml</dc:format>
        <dc:type
           rdf:resource="http://purl.org/dc/dcmitype/StillImage" />
        <dc:title></dc:title>
      </cc:Work>
    </rdf:RDF>
  </metadata>
  <sodipodi:namedview
     pagecolor="#ffffff"
     bordercolor="#666666"
     borderopacity="1"
     objecttolerance="10"
     gridtolerance="10"
     guidetolerance="10"
     inkscape:pageopacity="0"
     inkscape:pageshadow="2"
     inkscape:window-width="676"
     inkscape:window-height="480"
     id="namedview5633"
     showgrid="false"
     inkscape:zoom="0.55004583"
     inkscape:cx="299.97501"
     inkscape:cy="156.045"
     inkscape:window-x="55"
     inkscape:window-y="24"
     inkscape:window-maximized="0"
     inkscape:current-layer="svg5420" />
  <desc
     id="desc5422">Veusz output document</desc>
  <defs
     id="defs5424">
    <clipPath
       id="c0">
      <path
         d="m0,0l599.95,0l0,312.09l-599.95,0l0,-312.09"
         id="path5427" />
    </clipPath>
    <clipPath
       id="c1">
      <path
         d="m60.23,7.08l532.62,0l0,244.77l-532.62,0l0,-244.77"
         id="path5430" />
    </clipPath>
  </defs>
  <g
     stroke-linejoin="bevel"
     stroke-linecap="square"
     stroke="#000000"
     fill-rule="evenodd"
     id="g5432">
    <g
       clip-path="url(#c0)"
       id="g5434">
      <g
         fill="#ffffff"
         stroke-width="0.62"
         id="g5436">
        <path
           d="m60.23,7.08l532.62,0l0,244.77l-532.62,0l0,-244.77"
           id="path5438" />
      </g>
    </g>
    <g
       clip-path="url(#c1)"
       id="g5440">
      <g
         fill="none"
         stroke="#ff0000"
         stroke-width="12.5"
         id="g5442">
        <polyline
           fill="none"
           points="592.86,129.47 591.53,129.43 587.55,129.14 580.97,128.39 571.84,126.96 560.26,124.68 546.35,121.42 530.24,117.11 512.09,111.72 492.09,105.28 470.44,97.91 447.35,89.74 423.05,80.98 397.79,71.88 371.81,62.73 345.38,53.84 318.77,45.53 292.23,38.13 266.04,31.96 240.45,27.3 215.72,24.4 192.1,23.48 169.82,24.68 149.11,28.09 130.17,33.72 113.19,41.52 98.34,51.37 85.78,63.07 75.62,76.38 67.97,90.99 62.9,106.55 60.46,122.69 60.69,138.98 63.57,155.05 69.07,170.47 77.15,184.89 87.73,197.95 100.68,209.36 115.9,218.88 133.22,226.32 152.47,231.58 173.46,234.61 195.98,235.44 219.81,234.18 244.7,230.97 270.41,226.04 296.68,219.64 323.25,212.06 349.85,203.63 376.22,194.68 402.09,185.51 427.21,176.45 451.32,167.78 474.18,159.73 495.57,152.5 515.28,146.24 533.09,141.03 548.84,136.89 562.37,133.81 573.55,131.68 582.25,130.38 588.41,129.72 591.94,129.49"
           id="polyline5444" />
      </g>
      <g
         fill="#ff0000"
         stroke="none"
         stroke-linejoin="miter"
         stroke-width="1"
         id="g5446">
        <g
           transform="translate(592.86,129.47)"
           id="g5448">
          <path
             d="m3.75,0c0,2.07,-1.67,3.75,-3.75,3.75c-2.07,0,-3.75,-1.67,-3.75,-3.75c0,-2.07,1.67,-3.75,3.75,-3.75c2.07,0,3.75,1.67,3.75,3.75"
             id="p0" />
        </g>
        <use
           xlink:href="#p0"
           x="591.53"
           y="129.43"
           id="use5451" />
        <use
           xlink:href="#p0"
           x="587.55"
           y="129.14"
           id="use5453" />
        <use
           xlink:href="#p0"
           x="580.97"
           y="128.39"
           id="use5455" />
        <use
           xlink:href="#p0"
           x="571.84"
           y="126.96"
           id="use5457" />
        <use
           xlink:href="#p0"
           x="560.26"
           y="124.68"
           id="use5459" />
        <use
           xlink:href="#p0"
           x="546.35"
           y="121.42"
           id="use5461" />
        <use
           xlink:href="#p0"
           x="530.24"
           y="117.11"
           id="use5463" />
        <use
           xlink:href="#p0"
           x="512.09"
           y="111.72"
           id="use5465" />
        <use
           xlink:href="#p0"
           x="492.09"
           y="105.28"
           id="use5467" />
        <use
           xlink:href="#p0"
           x="470.44"
           y="97.91"
           id="use5469" />
        <use
           xlink:href="#p0"
           x="447.35"
           y="89.74"
           id="use5471" />
        <use
           xlink:href="#p0"
           x="423.05"
           y="80.98"
           id="use5473" />
        <use
           xlink:href="#p0"
           x="397.79"
           y="71.88"
           id="use5475" />
        <use
           xlink:href="#p0"
           x="371.81"
           y="62.73"
           id="use5477" />
        <use
           xlink:href="#p0"
           x="345.38"
           y="53.84"
           id="use5479" />
        <use
           xlink:href="#p0"
           x="318.77"
           y="45.53"
           id="use5481" />
        <use
           xlink:href="#p0"
           x="292.23"
           y="38.13"
           id="use5483" />
        <use
           xlink:href="#p0"
           x="266.04"
           y="31.96"
           id="use5485" />
        <use
           xlink:href="#p0"
           x="240.45"
           y="27.3"
           id="use5487" />
        <use
           xlink:href="#p0"
           x="215.72"
           y="24.4"
           id="use5489" />
        <use
           xlink:href="#p0"
           x="192.1"
           y="23.48"
           id="use5491" />
        <use
           xlink:href="#p0"
           x="169.82"
           y="24.68"
           id="use5493" />
        <use
           xlink:href="#p0"
           x="149.11"
           y="28.09"
           id="use5495" />
        <use
           xlink:href="#p0"
           x="130.17"
           y="33.72"
           id="use5497" />
        <use
           xlink:href="#p0"
           x="113.19"
           y="41.52"
           id="use5499" />
        <use
           xlink:href="#p0"
           x="98.34"
           y="51.37"
           id="use5501" />
        <use
           xlink:href="#p0"
           x="85.78"
           y="63.07"
           id="use5503" />
        <use
           xlink:href="#p0"
           x="75.62"
           y="76.38"
           id="use5505" />
        <use
           xlink:href="#p0"
           x="67.97"
           y="90.99"
           id="use5507" />
        <use
           xlink:href="#p0"
           x="62.9"
           y="106.55"
           id="use5509" />
        <use
           xlink:href="#p0"
           x="60.46"
           y="122.69"
           id="use5511" />
        <use
           xlink:href="#p0"
           x="60.69"
           y="138.98"
           id="use5513" />
        <use
           xlink:href="#p0"
           x="63.57"
           y="155.05"
           id="use5515" />
        <use
           xlink:href="#p0"
           x="69.07"
           y="170.47"
           id="use5517" />
        <use
           xlink:href="#p0"
           x="77.15"
           y="184.89"
           id="use5519" />
        <use
           xlink:href="#p0"
           x="87.73"
           y="197.95"
           id="use5521" />
        <use
           xlink:href="#p0"
           x="100.68"
           y="209.36"
           id="use5523" />
        <use
           xlink:href="#p0"
           x="115.9"
           y="218.88"
           id="use5525" />
        <use
           xlink:href="#p0"
           x="133.22"
           y="226.32"
           id="use5527" />
        <use
           xlink:href="#p0"
           x="152.47"
           y="231.58"
           id="use5529" />
        <use
           xlink:href="#p0"
           x="173.46"
           y="234.61"
           id="use5531" />
        <use
           xlink:href="#p0"
           x="195.98"
           y="235.44"
           id="use5533" />
        <use
           xlink:href="#p0"
           x="219.81"
           y="234.18"
           id="use5535" />
        <use
           xlink:href="#p0"
           x="244.7"
           y="230.97"
           id="use5537" />
        <use
           xlink:href="#p0"
           x="270.41"
           y="226.04"
           id="use5539" />
        <use
           xlink:href="#p0"
           x="296.68"
           y="219.64"
           id="use5541" />
        <use
           xlink:href="#p0"
           x="323.25"
           y="212.06"
           id="use5543" />
        <use
           xlink:href="#p0"
           x="349.85"
           y="203.63"
           id="use5545" />
        <use
           xlink:href="#p0"
           x="376.22"
           y="194.68"
           id="use5547" />
        <use
           xlink:href="#p0"
           x="402.09"
           y="185.51"
           id="use5549" />
        <use
           xlink:href="#p0"
           x="427.21"
           y="176.45"
           id="use5551" />
        <use
           xlink:href="#p0"
           x="451.32"
           y="167.78"
           id="use5553" />
        <use
           xlink:href="#p0"
           x="474.18"
           y="159.73"
           id="use5555" />
        <use
           xlink:href="#p0"
           x="495.57"
           y="152.5"
           id="use5557" />
        <use
           xlink:href="#p0"
           x="515.28"
           y="146.24"
           id="use5559" />
        <use
           xlink:href="#p0"
           x="533.09"
           y="141.03"
           id="use5561" />
        <use
           xlink:href="#p0"
           x="548.84"
           y="136.89"
           id="use5563" />
        <use
           xlink:href="#p0"
           x="562.37"
           y="133.81"
           id="use5565" />
        <use
           xlink:href="#p0"
           x="573.55"
           y="131.68"
           id="use5567" />
        <use
           xlink:href="#p0"
           x="582.25"
           y="130.38"
           id="use5569" />
        <use
           xlink:href="#p0"
           x="588.41"
           y="129.72"
           id="use5571" />
        <use
           xlink:href="#p0"
           x="591.94"
           y="129.49"
           id="use5573" />
      </g>
    </g>
    <g
       clip-path="url(#c0)"
       id="g5575">
      <g
         fill="none"
         stroke-linecap="butt"
         stroke-width="0.62"
         id="g5577">
        <path
           d="M60.23,251.85l0,-244.77"
           id="path5579" />
        <path
           d="M60.23,251.85l3.75,0M60.23,243.69l3.75,0M60.23,235.54l3.75,0M60.23,227.38l3.75,0M60.23,219.22l3.75,0M60.23,211.06l3.75,0M60.23,202.9l3.75,0M60.23,194.74l3.75,0M60.23,186.58l3.75,0M60.23,178.42l3.75,0M60.23,170.26l3.75,0M60.23,162.1l3.75,0M60.23,153.94l3.75,0M60.23,145.79l3.75,0M60.23,137.63l3.75,0M60.23,129.47l3.75,0M60.23,121.31l3.75,0M60.23,113.15l3.75,0M60.23,104.99l3.75,0M60.23,96.83l3.75,0M60.23,88.67l3.75,0M60.23,80.51l3.75,0M60.23,72.35l3.75,0M60.23,64.2l3.75,0M60.23,56.04l3.75,0M60.23,47.88l3.75,0M60.23,39.72l3.75,0M60.23,31.56l3.75,0M60.23,23.4l3.75,0M60.23,15.24l3.75,0M60.23,7.08l3.75,0"
           id="path5581" />
        <path
           d="M60.23,251.85l7.5,0M60.23,211.06l7.5,0M60.23,170.26l7.5,0M60.23,129.47l7.5,0M60.23,88.67l7.5,0M60.23,47.88l7.5,0M60.23,7.08l7.5,0"
           id="path5583" />
        <path
           d="M592.86,251.85l0,-244.77"
           id="path5585" />
        <path
           d="M592.86,251.85l-3.75,0M592.86,243.69l-3.75,0M592.86,235.54l-3.75,0M592.86,227.38l-3.75,0M592.86,219.22l-3.75,0M592.86,211.06l-3.75,0M592.86,202.9l-3.75,0M592.86,194.74l-3.75,0M592.86,186.58l-3.75,0M592.86,178.42l-3.75,0M592.86,170.26l-3.75,0M592.86,162.1l-3.75,0M592.86,153.94l-3.75,0M592.86,145.79l-3.75,0M592.86,137.63l-3.75,0M592.86,129.47l-3.75,0M592.86,121.31l-3.75,0M592.86,113.15l-3.75,0M592.86,104.99l-3.75,0M592.86,96.83l-3.75,0M592.86,88.67l-3.75,0M592.86,80.51l-3.75,0M592.86,72.35l-3.75,0M592.86,64.2l-3.75,0M592.86,56.04l-3.75,0M592.86,47.88l-3.75,0M592.86,39.72l-3.75,0M592.86,31.56l-3.75,0M592.86,23.4l-3.75,0M592.86,15.24l-3.75,0M592.86,7.08l-3.75,0"
           id="path5587" />
        <path
           d="M592.86,251.85l-7.5,0M592.86,211.06l-7.5,0M592.86,170.26l-7.5,0M592.86,129.47l-7.5,0M592.86,88.67l-7.5,0M592.86,47.88l-7.5,0M592.86,7.08l-7.5,0"
           id="path5589" />
      </g>
      <g
         fill="none"
         stroke-width="1"
         id="g5591">
        <path
           d="m24.87,252.48l-9.21,0l0,-0.7l9.21,0l0,0.7m0.97,-0.25c0,-1.32,0.19,-2.45,0.59,-3.41c0.39,-0.95,0.92,-1.66,1.58,-2.13c0.51,-0.37,1.04,-0.55,1.58,-0.55c0.88,0,1.68,0.45,2.39,1.35c0.88,1.12,1.32,2.64,1.32,4.56c0,1.34,-0.19,2.48,-0.58,3.42c-0.38,0.93,-0.88,1.62,-1.48,2.04c-0.6,0.42,-1.18,0.63,-1.73,0.63c-1.1,0,-2.02,-0.65,-2.75,-1.95c-0.62,-1.1,-0.93,-2.42,-0.93,-3.97m1.67,0.21c0,1.59,0.19,2.89,0.58,3.9c0.32,0.84,0.8,1.27,1.45,1.27c0.3,0,0.62,-0.13,0.95,-0.41c0.33,-0.27,0.58,-0.73,0.75,-1.38c0.26,-0.98,0.39,-2.36,0.39,-4.14c0,-1.32,-0.13,-2.42,-0.41,-3.3c-0.2,-0.65,-0.46,-1.11,-0.79,-1.39c-0.23,-0.18,-0.51,-0.28,-0.84,-0.28c-0.38,0,-0.73,0.17,-1.03,0.52c-0.41,0.47,-0.68,1.21,-0.83,2.23c-0.14,1.01,-0.22,2.01,-0.22,2.99m8.62,3.85c0.26,0,0.49,0.09,0.67,0.27c0.18,0.18,0.27,0.4,0.27,0.67c0,0.26,-0.09,0.48,-0.27,0.67c-0.18,0.18,-0.4,0.27,-0.67,0.27c-0.26,0,-0.48,-0.09,-0.67,-0.27c-0.18,-0.18,-0.27,-0.4,-0.27,-0.67c0,-0.26,0.09,-0.49,0.27,-0.67c0.18,-0.18,0.4,-0.27,0.67,-0.27m3.94,-9.92l6.21,0l0,0.32l-3.86,11.5l-0.95,0l3.46,-10.43l-3.18,0c-0.64,0,-1.1,0.07,-1.37,0.22c-0.47,0.26,-0.86,0.66,-1.15,1.21l-0.24,-0.09l1.11,-2.74m14.58,0l-0.66,1.45l-3.48,0l-0.76,1.55c1.5,0.22,2.7,0.78,3.58,1.68c0.75,0.77,1.13,1.68,1.13,2.73c0,0.6,-0.12,1.17,-0.37,1.69c-0.24,0.51,-0.55,0.95,-0.93,1.32c-0.37,0.36,-0.79,0.65,-1.25,0.87c-0.65,0.31,-1.32,0.47,-2.01,0.47c-0.69,0,-1.2,-0.11,-1.51,-0.35c-0.31,-0.23,-0.47,-0.49,-0.47,-0.78c0,-0.15,0.06,-0.3,0.19,-0.42c0.13,-0.12,0.29,-0.18,0.49,-0.18c0.14,0,0.27,0.02,0.38,0.06c0.11,0.04,0.3,0.16,0.56,0.35c0.42,0.29,0.86,0.44,1.3,0.44c0.66,0,1.25,-0.25,1.75,-0.75c0.5,-0.5,0.75,-1.11,0.75,-1.84c0,-0.7,-0.22,-1.35,-0.67,-1.96c-0.45,-0.6,-1.07,-1.07,-1.86,-1.4c-0.62,-0.25,-1.46,-0.4,-2.53,-0.44l2.22,-4.5l4.15,0"
           fill="#000000"
           stroke="none"
           fill-opacity="1"
           id="path5593" />
        <path
           d="m33.62,211.69l-9.21,0l0,-0.7l9.21,0l0,0.7m0.97,-0.25c0,-1.32,0.19,-2.45,0.59,-3.41c0.39,-0.95,0.92,-1.66,1.58,-2.13c0.51,-0.37,1.04,-0.55,1.58,-0.55c0.88,0,1.68,0.45,2.39,1.35c0.88,1.12,1.32,2.64,1.32,4.56c0,1.34,-0.19,2.48,-0.58,3.42c-0.38,0.93,-0.88,1.62,-1.48,2.04c-0.6,0.42,-1.18,0.63,-1.73,0.63c-1.1,0,-2.02,-0.65,-2.75,-1.95c-0.62,-1.1,-0.93,-2.42,-0.93,-3.97m1.67,0.21c0,1.59,0.19,2.89,0.58,3.9c0.32,0.84,0.8,1.27,1.45,1.27c0.3,0,0.62,-0.13,0.95,-0.41c0.33,-0.27,0.58,-0.73,0.75,-1.38c0.26,-0.98,0.39,-2.36,0.39,-4.14c0,-1.32,-0.13,-2.42,-0.41,-3.3c-0.2,-0.65,-0.46,-1.11,-0.79,-1.39c-0.23,-0.18,-0.51,-0.28,-0.84,-0.28c-0.38,0,-0.73,0.17,-1.03,0.52c-0.41,0.47,-0.68,1.21,-0.83,2.23c-0.14,1.01,-0.22,2.01,-0.22,2.99m8.62,3.85c0.26,0,0.49,0.09,0.67,0.27c0.18,0.18,0.27,0.4,0.27,0.67c0,0.26,-0.09,0.48,-0.27,0.67c-0.18,0.18,-0.4,0.27,-0.67,0.27c-0.26,0,-0.48,-0.09,-0.67,-0.27c-0.18,-0.18,-0.27,-0.4,-0.27,-0.67c0,-0.26,0.09,-0.49,0.27,-0.67c0.18,-0.18,0.4,-0.27,0.67,-0.27m9.78,-9.92l-0.66,1.45l-3.48,0l-0.76,1.55c1.5,0.22,2.7,0.78,3.58,1.68c0.75,0.77,1.13,1.68,1.13,2.73c0,0.6,-0.12,1.17,-0.37,1.69c-0.24,0.51,-0.55,0.95,-0.93,1.32c-0.37,0.36,-0.79,0.65,-1.25,0.87c-0.65,0.31,-1.32,0.47,-2.01,0.47c-0.69,0,-1.2,-0.11,-1.51,-0.35c-0.31,-0.23,-0.47,-0.49,-0.47,-0.78c0,-0.15,0.06,-0.3,0.19,-0.42c0.13,-0.12,0.29,-0.18,0.49,-0.18c0.14,0,0.27,0.02,0.38,0.06c0.11,0.04,0.3,0.16,0.56,0.35c0.42,0.29,0.86,0.44,1.3,0.44c0.66,0,1.25,-0.25,1.75,-0.75c0.5,-0.5,0.75,-1.11,0.75,-1.84c0,-0.7,-0.22,-1.35,-0.67,-1.96c-0.45,-0.6,-1.07,-1.07,-1.86,-1.4c-0.62,-0.25,-1.46,-0.4,-2.53,-0.44l2.22,-4.5l4.15,0"
           fill="#000000"
           stroke="none"
           fill-opacity="1"
           id="path5595" />
        <path
           d="m24.87,170.89l-9.21,0l0,-0.7l9.21,0l0,0.7m0.97,-0.25c0,-1.32,0.19,-2.45,0.59,-3.41c0.39,-0.95,0.92,-1.66,1.58,-2.13c0.51,-0.37,1.04,-0.55,1.58,-0.55c0.88,0,1.68,0.45,2.39,1.35c0.88,1.12,1.32,2.64,1.32,4.56c0,1.34,-0.19,2.48,-0.58,3.42c-0.38,0.93,-0.88,1.62,-1.48,2.04c-0.6,0.42,-1.18,0.63,-1.73,0.63c-1.1,0,-2.02,-0.65,-2.75,-1.95c-0.62,-1.1,-0.93,-2.42,-0.93,-3.97m1.67,0.21c0,1.59,0.19,2.89,0.58,3.9c0.32,0.84,0.8,1.27,1.45,1.27c0.3,0,0.62,-0.13,0.95,-0.41c0.33,-0.27,0.58,-0.73,0.75,-1.38c0.26,-0.98,0.39,-2.36,0.39,-4.14c0,-1.32,-0.13,-2.42,-0.41,-3.3c-0.2,-0.65,-0.46,-1.11,-0.79,-1.39c-0.23,-0.18,-0.51,-0.28,-0.84,-0.28c-0.38,0,-0.73,0.17,-1.03,0.52c-0.41,0.47,-0.68,1.21,-0.83,2.23c-0.14,1.01,-0.22,2.01,-0.22,2.99m8.62,3.85c0.26,0,0.49,0.09,0.67,0.27c0.18,0.18,0.27,0.4,0.27,0.67c0,0.26,-0.09,0.48,-0.27,0.67c-0.18,0.18,-0.4,0.27,-0.67,0.27c-0.26,0,-0.48,-0.09,-0.67,-0.27c-0.18,-0.18,-0.27,-0.4,-0.27,-0.67c0,-0.26,0.09,-0.49,0.27,-0.67c0.18,-0.18,0.4,-0.27,0.67,-0.27m10.21,-0.57l-0.81,2.22l-6.83,0l0,-0.31c2.01,-1.83,3.42,-3.33,4.24,-4.49c0.82,-1.16,1.23,-2.22,1.23,-3.18c0,-0.73,-0.22,-1.33,-0.67,-1.81c-0.45,-0.47,-0.98,-0.7,-1.61,-0.7c-0.56,0,-1.07,0.16,-1.53,0.5c-0.45,0.33,-0.78,0.82,-1,1.46l-0.31,0c0.14,-1.05,0.5,-1.86,1.09,-2.42c0.58,-0.56,1.32,-0.84,2.2,-0.84c0.94,0,1.72,0.3,2.35,0.9c0.62,0.6,0.94,1.31,0.94,2.13c0,0.58,-0.13,1.17,-0.4,1.76c-0.42,0.92,-1.1,1.89,-2.05,2.92c-1.41,1.55,-2.3,2.48,-2.65,2.8l3.02,0c0.61,0,1.04,-0.02,1.29,-0.06c0.24,-0.04,0.47,-0.13,0.67,-0.27c0.19,-0.13,0.37,-0.33,0.52,-0.59l0.31,0m8.32,-9.35l-0.66,1.45l-3.48,0l-0.76,1.55c1.5,0.22,2.7,0.78,3.58,1.68c0.75,0.77,1.13,1.68,1.13,2.73c0,0.6,-0.12,1.17,-0.37,1.69c-0.24,0.51,-0.55,0.95,-0.93,1.32c-0.37,0.36,-0.79,0.65,-1.25,0.87c-0.65,0.31,-1.32,0.47,-2.01,0.47c-0.69,0,-1.2,-0.11,-1.51,-0.35c-0.31,-0.23,-0.47,-0.49,-0.47,-0.78c0,-0.15,0.06,-0.3,0.19,-0.42c0.13,-0.12,0.29,-0.18,0.49,-0.18c0.14,0,0.27,0.02,0.38,0.06c0.11,0.04,0.3,0.16,0.56,0.35c0.42,0.29,0.86,0.44,1.3,0.44c0.66,0,1.25,-0.25,1.75,-0.75c0.5,-0.5,0.75,-1.11,0.75,-1.84c0,-0.7,-0.22,-1.35,-0.67,-1.96c-0.45,-0.6,-1.07,-1.07,-1.86,-1.4c-0.62,-0.25,-1.46,-0.4,-2.53,-0.44l2.22,-4.5l4.15,0"
           fill="#000000"
           stroke="none"
           fill-opacity="1"
           id="path5597" />
        <path
           d="m47.71,129.84c0,-1.32,0.19,-2.45,0.59,-3.41c0.39,-0.95,0.92,-1.66,1.58,-2.13c0.51,-0.37,1.04,-0.55,1.58,-0.55c0.88,0,1.68,0.45,2.39,1.35c0.88,1.12,1.32,2.64,1.32,4.56c0,1.34,-0.19,2.48,-0.58,3.42c-0.38,0.93,-0.88,1.62,-1.48,2.04c-0.6,0.42,-1.18,0.63,-1.73,0.63c-1.1,0,-2.02,-0.65,-2.75,-1.95c-0.62,-1.1,-0.93,-2.42,-0.93,-3.97m1.67,0.21c0,1.59,0.19,2.89,0.58,3.9c0.32,0.84,0.8,1.27,1.45,1.27c0.3,0,0.62,-0.13,0.95,-0.41c0.33,-0.27,0.58,-0.73,0.75,-1.38c0.26,-0.98,0.39,-2.36,0.39,-4.14c0,-1.32,-0.13,-2.42,-0.41,-3.3c-0.2,-0.65,-0.46,-1.11,-0.79,-1.39c-0.23,-0.18,-0.51,-0.28,-0.84,-0.28c-0.38,0,-0.73,0.17,-1.03,0.52c-0.41,0.47,-0.68,1.21,-0.83,2.23c-0.14,1.01,-0.22,2.01,-0.22,2.99"
           fill="#000000"
           stroke="none"
           fill-opacity="1"
           id="path5599" />
        <path
           d="m25.84,89.05c0,-1.32,0.19,-2.45,0.59,-3.41c0.39,-0.95,0.92,-1.66,1.58,-2.13c0.51,-0.37,1.04,-0.55,1.58,-0.55c0.88,0,1.68,0.45,2.39,1.35c0.88,1.12,1.32,2.64,1.32,4.56c0,1.34,-0.19,2.48,-0.58,3.42c-0.38,0.93,-0.88,1.62,-1.48,2.04c-0.6,0.42,-1.18,0.63,-1.73,0.63c-1.1,0,-2.02,-0.65,-2.75,-1.95c-0.62,-1.1,-0.93,-2.42,-0.93,-3.97m1.67,0.21c0,1.59,0.19,2.89,0.58,3.9c0.32,0.84,0.8,1.27,1.45,1.27c0.3,0,0.62,-0.13,0.95,-0.41c0.33,-0.27,0.58,-0.73,0.75,-1.38c0.26,-0.98,0.39,-2.36,0.39,-4.14c0,-1.32,-0.13,-2.42,-0.41,-3.3c-0.2,-0.65,-0.46,-1.11,-0.79,-1.39c-0.23,-0.18,-0.51,-0.28,-0.84,-0.28c-0.38,0,-0.73,0.17,-1.03,0.52c-0.41,0.47,-0.68,1.21,-0.83,2.23c-0.14,1.01,-0.22,2.01,-0.22,2.99m8.62,3.85c0.26,0,0.49,0.09,0.67,0.27c0.18,0.18,0.27,0.4,0.27,0.67c0,0.26,-0.09,0.48,-0.27,0.67c-0.18,0.18,-0.4,0.27,-0.67,0.27c-0.26,0,-0.48,-0.09,-0.67,-0.27c-0.18,-0.18,-0.27,-0.4,-0.27,-0.67c0,-0.26,0.09,-0.49,0.27,-0.67c0.18,-0.18,0.4,-0.27,0.67,-0.27m10.21,-0.57l-0.81,2.22l-6.83,0l0,-0.31c2.01,-1.83,3.42,-3.33,4.24,-4.49c0.82,-1.16,1.23,-2.22,1.23,-3.18c0,-0.73,-0.22,-1.33,-0.67,-1.81c-0.45,-0.47,-0.98,-0.7,-1.61,-0.7c-0.56,0,-1.07,0.16,-1.53,0.5c-0.45,0.33,-0.78,0.82,-1,1.46l-0.31,0c0.14,-1.05,0.5,-1.86,1.09,-2.42c0.58,-0.56,1.32,-0.84,2.2,-0.84c0.94,0,1.72,0.3,2.35,0.9c0.62,0.6,0.94,1.31,0.94,2.13c0,0.58,-0.13,1.17,-0.4,1.76c-0.42,0.92,-1.1,1.89,-2.05,2.92c-1.41,1.55,-2.3,2.48,-2.65,2.8l3.02,0c0.61,0,1.04,-0.02,1.29,-0.06c0.24,-0.04,0.47,-0.13,0.67,-0.27c0.19,-0.13,0.37,-0.33,0.52,-0.59l0.31,0m8.32,-9.35l-0.66,1.45l-3.48,0l-0.76,1.55c1.5,0.22,2.7,0.78,3.58,1.68c0.75,0.77,1.13,1.68,1.13,2.73c0,0.6,-0.12,1.17,-0.37,1.69c-0.24,0.51,-0.55,0.95,-0.93,1.32c-0.37,0.36,-0.79,0.65,-1.25,0.87c-0.65,0.31,-1.32,0.47,-2.01,0.47c-0.69,0,-1.2,-0.11,-1.51,-0.35c-0.31,-0.23,-0.47,-0.49,-0.47,-0.78c0,-0.15,0.06,-0.3,0.19,-0.42c0.13,-0.12,0.29,-0.18,0.49,-0.18c0.14,0,0.27,0.02,0.38,0.06c0.11,0.04,0.3,0.16,0.56,0.35c0.42,0.29,0.86,0.44,1.3,0.44c0.66,0,1.25,-0.25,1.75,-0.75c0.5,-0.5,0.75,-1.11,0.75,-1.84c0,-0.7,-0.22,-1.35,-0.67,-1.96c-0.45,-0.6,-1.07,-1.07,-1.86,-1.4c-0.62,-0.25,-1.46,-0.4,-2.53,-0.44l2.22,-4.5l4.15,0"
           fill="#000000"
           stroke="none"
           fill-opacity="1"
           id="path5601" />
        <path
           d="m34.59,48.25c0,-1.32,0.19,-2.45,0.59,-3.41c0.39,-0.95,0.92,-1.66,1.58,-2.13c0.51,-0.37,1.04,-0.55,1.58,-0.55c0.88,0,1.68,0.45,2.39,1.35c0.88,1.12,1.32,2.64,1.32,4.56c0,1.34,-0.19,2.48,-0.58,3.42c-0.38,0.93,-0.88,1.62,-1.48,2.04c-0.6,0.42,-1.18,0.63,-1.73,0.63c-1.1,0,-2.02,-0.65,-2.75,-1.95c-0.62,-1.1,-0.93,-2.42,-0.93,-3.97m1.67,0.21c0,1.59,0.19,2.89,0.58,3.9c0.32,0.84,0.8,1.27,1.45,1.27c0.3,0,0.62,-0.13,0.95,-0.41c0.33,-0.27,0.58,-0.73,0.75,-1.38c0.26,-0.98,0.39,-2.36,0.39,-4.14c0,-1.32,-0.13,-2.42,-0.41,-3.3c-0.2,-0.65,-0.46,-1.11,-0.79,-1.39c-0.23,-0.18,-0.51,-0.28,-0.84,-0.28c-0.38,0,-0.73,0.17,-1.03,0.52c-0.41,0.47,-0.68,1.21,-0.83,2.23c-0.14,1.01,-0.22,2.01,-0.22,2.99m8.62,3.85c0.26,0,0.49,0.09,0.67,0.27c0.18,0.18,0.27,0.4,0.27,0.67c0,0.26,-0.09,0.48,-0.27,0.67c-0.18,0.18,-0.4,0.27,-0.67,0.27c-0.26,0,-0.48,-0.09,-0.67,-0.27c-0.18,-0.18,-0.27,-0.4,-0.27,-0.67c0,-0.26,0.09,-0.49,0.27,-0.67c0.18,-0.18,0.4,-0.27,0.67,-0.27m9.78,-9.92l-0.66,1.45l-3.48,0l-0.76,1.55c1.5,0.22,2.7,0.78,3.58,1.68c0.75,0.77,1.13,1.68,1.13,2.73c0,0.6,-0.12,1.17,-0.37,1.69c-0.24,0.51,-0.55,0.95,-0.93,1.32c-0.37,0.36,-0.79,0.65,-1.25,0.87c-0.65,0.31,-1.32,0.47,-2.01,0.47c-0.69,0,-1.2,-0.11,-1.51,-0.35c-0.31,-0.23,-0.47,-0.49,-0.47,-0.78c0,-0.15,0.06,-0.3,0.19,-0.42c0.13,-0.12,0.29,-0.18,0.49,-0.18c0.14,0,0.27,0.02,0.38,0.06c0.11,0.04,0.3,0.16,0.56,0.35c0.42,0.29,0.86,0.44,1.3,0.44c0.66,0,1.25,-0.25,1.75,-0.75c0.5,-0.5,0.75,-1.11,0.75,-1.84c0,-0.7,-0.22,-1.35,-0.67,-1.96c-0.45,-0.6,-1.07,-1.07,-1.86,-1.4c-0.62,-0.25,-1.46,-0.4,-2.53,-0.44l2.22,-4.5l4.15,0"
           fill="#000000"
           stroke="none"
           fill-opacity="1"
           id="path5603" />
        <path
           d="m25.84,10.35c0,-1.32,0.19,-2.45,0.59,-3.41c0.39,-0.95,0.92,-1.66,1.58,-2.13c0.51,-0.37,1.04,-0.55,1.58,-0.55c0.88,0,1.68,0.45,2.39,1.35c0.88,1.12,1.32,2.64,1.32,4.56c0,1.34,-0.19,2.48,-0.58,3.42c-0.38,0.93,-0.88,1.62,-1.48,2.04c-0.6,0.42,-1.18,0.63,-1.73,0.63c-1.1,0,-2.02,-0.65,-2.75,-1.95c-0.62,-1.1,-0.93,-2.42,-0.93,-3.97m1.67,0.21c0,1.59,0.19,2.89,0.58,3.9c0.32,0.84,0.8,1.27,1.45,1.27c0.3,0,0.62,-0.13,0.95,-0.41c0.33,-0.27,0.58,-0.73,0.75,-1.38c0.26,-0.98,0.39,-2.36,0.39,-4.14c0,-1.32,-0.13,-2.42,-0.41,-3.3c-0.2,-0.65,-0.46,-1.11,-0.79,-1.39c-0.23,-0.18,-0.51,-0.28,-0.84,-0.28c-0.38,0,-0.73,0.17,-1.03,0.52c-0.41,0.47,-0.68,1.21,-0.83,2.23c-0.14,1.01,-0.22,2.01,-0.22,2.99m8.62,3.85c0.26,0,0.49,0.09,0.67,0.27c0.18,0.18,0.27,0.4,0.27,0.67c0,0.26,-0.09,0.48,-0.27,0.67c-0.18,0.18,-0.4,0.27,-0.67,0.27c-0.26,0,-0.48,-0.09,-0.67,-0.27c-0.18,-0.18,-0.27,-0.4,-0.27,-0.67c0,-0.26,0.09,-0.49,0.27,-0.67c0.18,-0.18,0.4,-0.27,0.67,-0.27m3.94,-9.92l6.21,0l0,0.32l-3.86,11.5l-0.95,0l3.46,-10.43l-3.18,0c-0.64,0,-1.1,0.07,-1.37,0.22c-0.47,0.26,-0.86,0.66,-1.15,1.21l-0.24,-0.09l1.11,-2.74m14.58,0l-0.66,1.45l-3.48,0l-0.76,1.55c1.5,0.22,2.7,0.78,3.58,1.68c0.75,0.77,1.13,1.68,1.13,2.73c0,0.6,-0.12,1.17,-0.37,1.69c-0.24,0.51,-0.55,0.95,-0.93,1.32c-0.37,0.36,-0.79,0.65,-1.25,0.87c-0.65,0.31,-1.32,0.47,-2.01,0.47c-0.69,0,-1.2,-0.11,-1.51,-0.35c-0.31,-0.23,-0.47,-0.49,-0.47,-0.78c0,-0.15,0.06,-0.3,0.19,-0.42c0.13,-0.12,0.29,-0.18,0.49,-0.18c0.14,0,0.27,0.02,0.38,0.06c0.11,0.04,0.3,0.16,0.56,0.35c0.42,0.29,0.86,0.44,1.3,0.44c0.66,0,1.25,-0.25,1.75,-0.75c0.5,-0.5,0.75,-1.11,0.75,-1.84c0,-0.7,-0.22,-1.35,-0.67,-1.96c-0.45,-0.6,-1.07,-1.07,-1.86,-1.4c-0.62,-0.25,-1.46,-0.4,-2.53,-0.44l2.22,-4.5l4.15,0"
           fill="#000000"
           stroke="none"
           fill-opacity="1"
           id="path5605" />
      </g>
      <g
         fill="none"
         stroke-linecap="butt"
         stroke-width="0.62"
         id="g5607">
        <path
           d="M60.23,251.85l532.62,0"
           id="path5609" />
        <path
           d="M60.23,251.85l0,-3.75M86.86,251.85l0,-3.75M113.49,251.85l0,-3.75M140.13,251.85l0,-3.75M166.76,251.85l0,-3.75M193.39,251.85l0,-3.75M220.02,251.85l0,-3.75M246.65,251.85l0,-3.75M273.28,251.85l0,-3.75M299.91,251.85l0,-3.75M326.55,251.85l0,-3.75M353.18,251.85l0,-3.75M379.81,251.85l0,-3.75M406.44,251.85l0,-3.75M433.07,251.85l0,-3.75M459.7,251.85l0,-3.75M486.34,251.85l0,-3.75M512.97,251.85l0,-3.75M539.6,251.85l0,-3.75M566.23,251.85l0,-3.75M592.86,251.85l0,-3.75"
           id="path5611" />
        <path
           d="M60.23,251.85l0,-7.5M193.39,251.85l0,-7.5M326.55,251.85l0,-7.5M459.7,251.85l0,-7.5M592.86,251.85l0,-7.5"
           id="path5613" />
        <path
           d="M60.23,7.08l532.62,0"
           id="path5615" />
        <path
           d="M60.23,7.08l0,3.75M86.86,7.08l0,3.75M113.49,7.08l0,3.75M140.13,7.08l0,3.75M166.76,7.08l0,3.75M193.39,7.08l0,3.75M220.02,7.08l0,3.75M246.65,7.08l0,3.75M273.28,7.08l0,3.75M299.91,7.08l0,3.75M326.55,7.08l0,3.75M353.18,7.08l0,3.75M379.81,7.08l0,3.75M406.44,7.08l0,3.75M433.07,7.08l0,3.75M459.7,7.08l0,3.75M486.34,7.08l0,3.75M512.97,7.08l0,3.75M539.6,7.08l0,3.75M566.23,7.08l0,3.75M592.86,7.08l0,3.75"
           id="path5617" />
        <path
           d="M60.23,7.08l0,7.5M193.39,7.08l0,7.5M326.55,7.08l0,7.5M459.7,7.08l0,7.5M592.86,7.08l0,7.5"
           id="path5619" />
      </g>
      <g
         fill="none"
         stroke-width="1"
         id="g5621">
        <path
           d="m60.45,266.38l-9.21,0l0,-0.7l9.21,0l0,0.7m2.39,-4.98l2.81,-1.37l0.28,0l0,9.78c0,0.64,0.02,1.05,0.08,1.21c0.05,0.15,0.16,0.28,0.33,0.36c0.17,0.08,0.51,0.13,1.04,0.14l0,0.31l-4.35,0l0,-0.31c0.54,-0.01,0.9,-0.05,1.05,-0.14c0.15,-0.08,0.27,-0.19,0.33,-0.33c0.06,-0.13,0.09,-0.55,0.09,-1.25l0,-6.25c0,-0.84,-0.02,-1.38,-0.08,-1.62c-0.04,-0.18,-0.11,-0.31,-0.21,-0.4c-0.1,-0.08,-0.23,-0.12,-0.37,-0.12c-0.21,0,-0.5,0.08,-0.87,0.26l-0.12,-0.26"
           fill="#000000"
           stroke="none"
           fill-opacity="1"
           id="path5623" />
        <path
           d="m187.04,266.38l-9.21,0l0,-0.7l9.21,0l0,0.7m0.97,-0.25c0,-1.32,0.19,-2.45,0.59,-3.41c0.39,-0.95,0.92,-1.66,1.58,-2.13c0.51,-0.37,1.04,-0.55,1.58,-0.55c0.88,0,1.68,0.45,2.39,1.35c0.88,1.12,1.32,2.64,1.32,4.56c0,1.34,-0.19,2.48,-0.58,3.42c-0.38,0.93,-0.88,1.62,-1.48,2.04c-0.6,0.42,-1.18,0.63,-1.73,0.63c-1.1,0,-2.02,-0.65,-2.75,-1.95c-0.62,-1.1,-0.93,-2.42,-0.93,-3.97m1.67,0.21c0,1.59,0.19,2.89,0.58,3.9c0.32,0.84,0.8,1.27,1.45,1.27c0.3,0,0.62,-0.13,0.95,-0.41c0.33,-0.27,0.58,-0.73,0.75,-1.38c0.26,-0.98,0.39,-2.36,0.39,-4.14c0,-1.32,-0.13,-2.42,-0.41,-3.3c-0.2,-0.65,-0.46,-1.11,-0.79,-1.39c-0.23,-0.18,-0.51,-0.28,-0.84,-0.28c-0.38,0,-0.73,0.17,-1.03,0.52c-0.41,0.47,-0.68,1.21,-0.83,2.23c-0.14,1.01,-0.22,2.01,-0.22,2.99m8.62,3.85c0.26,0,0.49,0.09,0.67,0.27c0.18,0.18,0.27,0.4,0.27,0.67c0,0.26,-0.09,0.48,-0.27,0.67c-0.18,0.18,-0.4,0.27,-0.67,0.27c-0.26,0,-0.48,-0.09,-0.67,-0.27c-0.18,-0.18,-0.27,-0.4,-0.27,-0.67c0,-0.26,0.09,-0.49,0.27,-0.67c0.18,-0.18,0.4,-0.27,0.67,-0.27m9.78,-9.92l-0.66,1.45l-3.48,0l-0.76,1.55c1.5,0.22,2.7,0.78,3.58,1.68c0.75,0.77,1.13,1.68,1.13,2.73c0,0.6,-0.12,1.17,-0.37,1.69c-0.24,0.51,-0.55,0.95,-0.93,1.32c-0.37,0.36,-0.79,0.65,-1.25,0.87c-0.65,0.31,-1.32,0.47,-2.01,0.47c-0.69,0,-1.2,-0.11,-1.51,-0.35c-0.31,-0.23,-0.47,-0.49,-0.47,-0.78c0,-0.15,0.06,-0.3,0.19,-0.42c0.13,-0.12,0.29,-0.18,0.49,-0.18c0.14,0,0.27,0.02,0.38,0.06c0.11,0.04,0.3,0.16,0.56,0.35c0.42,0.29,0.86,0.44,1.3,0.44c0.66,0,1.25,-0.25,1.75,-0.75c0.5,-0.5,0.75,-1.11,0.75,-1.84c0,-0.7,-0.22,-1.35,-0.67,-1.96c-0.45,-0.6,-1.07,-1.07,-1.86,-1.4c-0.62,-0.25,-1.46,-0.4,-2.53,-0.44l2.22,-4.5l4.15,0"
           fill="#000000"
           stroke="none"
           fill-opacity="1"
           id="path5625" />
        <path
           d="m322.8,266.13c0,-1.32,0.19,-2.45,0.59,-3.41c0.39,-0.95,0.92,-1.66,1.58,-2.13c0.51,-0.37,1.04,-0.55,1.58,-0.55c0.88,0,1.68,0.45,2.39,1.35c0.88,1.12,1.32,2.64,1.32,4.56c0,1.34,-0.19,2.48,-0.58,3.42c-0.38,0.93,-0.88,1.62,-1.48,2.04c-0.6,0.42,-1.18,0.63,-1.73,0.63c-1.1,0,-2.02,-0.65,-2.75,-1.95c-0.62,-1.1,-0.93,-2.42,-0.93,-3.97m1.67,0.21c0,1.59,0.19,2.89,0.58,3.9c0.32,0.84,0.8,1.27,1.45,1.27c0.3,0,0.62,-0.13,0.95,-0.41c0.33,-0.27,0.58,-0.73,0.75,-1.38c0.26,-0.98,0.39,-2.36,0.39,-4.14c0,-1.32,-0.13,-2.42,-0.41,-3.3c-0.2,-0.65,-0.46,-1.11,-0.79,-1.39c-0.23,-0.18,-0.51,-0.28,-0.84,-0.28c-0.38,0,-0.73,0.17,-1.03,0.52c-0.41,0.47,-0.68,1.21,-0.83,2.23c-0.14,1.01,-0.22,2.01,-0.22,2.99"
           fill="#000000"
           stroke="none"
           fill-opacity="1"
           id="path5627" />
        <path
           d="m449.4,266.13c0,-1.32,0.19,-2.45,0.59,-3.41c0.39,-0.95,0.92,-1.66,1.58,-2.13c0.51,-0.37,1.04,-0.55,1.58,-0.55c0.88,0,1.68,0.45,2.39,1.35c0.88,1.12,1.32,2.64,1.32,4.56c0,1.34,-0.19,2.48,-0.58,3.42c-0.38,0.93,-0.88,1.62,-1.48,2.04c-0.6,0.42,-1.18,0.63,-1.73,0.63c-1.1,0,-2.02,-0.65,-2.75,-1.95c-0.62,-1.1,-0.93,-2.42,-0.93,-3.97m1.67,0.21c0,1.59,0.19,2.89,0.58,3.9c0.32,0.84,0.8,1.27,1.45,1.27c0.3,0,0.62,-0.13,0.95,-0.41c0.33,-0.27,0.58,-0.73,0.75,-1.38c0.26,-0.98,0.39,-2.36,0.39,-4.14c0,-1.32,-0.13,-2.42,-0.41,-3.3c-0.2,-0.65,-0.46,-1.11,-0.79,-1.39c-0.23,-0.18,-0.51,-0.28,-0.84,-0.28c-0.38,0,-0.73,0.17,-1.03,0.52c-0.41,0.47,-0.68,1.21,-0.83,2.23c-0.14,1.01,-0.22,2.01,-0.22,2.99m8.62,3.85c0.26,0,0.49,0.09,0.67,0.27c0.18,0.18,0.27,0.4,0.27,0.67c0,0.26,-0.09,0.48,-0.27,0.67c-0.18,0.18,-0.4,0.27,-0.67,0.27c-0.26,0,-0.48,-0.09,-0.67,-0.27c-0.18,-0.18,-0.27,-0.4,-0.27,-0.67c0,-0.26,0.09,-0.49,0.27,-0.67c0.18,-0.18,0.4,-0.27,0.67,-0.27m9.78,-9.92l-0.66,1.45l-3.48,0l-0.76,1.55c1.5,0.22,2.7,0.78,3.58,1.68c0.75,0.77,1.13,1.68,1.13,2.73c0,0.6,-0.12,1.17,-0.37,1.69c-0.24,0.51,-0.55,0.95,-0.93,1.32c-0.37,0.36,-0.79,0.65,-1.25,0.87c-0.65,0.31,-1.32,0.47,-2.01,0.47c-0.69,0,-1.2,-0.11,-1.51,-0.35c-0.31,-0.23,-0.47,-0.49,-0.47,-0.78c0,-0.15,0.06,-0.3,0.19,-0.42c0.13,-0.12,0.29,-0.18,0.49,-0.18c0.14,0,0.27,0.02,0.38,0.06c0.11,0.04,0.3,0.16,0.56,0.35c0.42,0.29,0.86,0.44,1.3,0.44c0.66,0,1.25,-0.25,1.75,-0.75c0.5,-0.5,0.75,-1.11,0.75,-1.84c0,-0.7,-0.22,-1.35,-0.67,-1.96c-0.45,-0.6,-1.07,-1.07,-1.86,-1.4c-0.62,-0.25,-1.46,-0.4,-2.53,-0.44l2.22,-4.5l4.15,0"
           fill="#000000"
           stroke="none"
           fill-opacity="1"
           id="path5629" />
        <path
           d="m590.54,261.4l2.81,-1.37l0.28,0l0,9.78c0,0.64,0.02,1.05,0.08,1.21c0.05,0.15,0.16,0.28,0.33,0.36c0.17,0.08,0.51,0.13,1.04,0.14l0,0.31l-4.35,0l0,-0.31c0.54,-0.01,0.9,-0.05,1.05,-0.14c0.15,-0.08,0.27,-0.19,0.33,-0.33c0.06,-0.13,0.09,-0.55,0.09,-1.25l0,-6.25c0,-0.84,-0.02,-1.38,-0.08,-1.62c-0.04,-0.18,-0.11,-0.31,-0.21,-0.4c-0.1,-0.08,-0.23,-0.12,-0.37,-0.12c-0.21,0,-0.5,0.08,-0.87,0.26l-0.12,-0.26"
           fill="#000000"
           stroke="none"
           fill-opacity="1"
           id="path5631" />
      </g>
    </g>
  </g>
</svg>
